<svg height='100px' width='100px'  fill="#1A1A1A" xmlns="http://www.w3.org/2000/svg" xmlns:xlink="http://www.w3.org/1999/xlink" version="1.1" x="0px" y="0px" viewBox="0 0 100 100" enable-background="new 0 0 100 100" xml:space="preserve"><g><path fill="#1A1A1A" stroke="#1A1A1A" stroke-linecap="round" stroke-linejoin="round" stroke-miterlimit="10" d="M99.102,37.552   c0,0-15.877,0.619-22.069,0.642c-6.193,0.023-8.902,5.315-8.902,5.315s-31.625,0.083-36.786,0   c-3.031-5.571-8.787-5.315-8.787-5.315s-19.609,0.082-21.575,0c-0.885,0.298-0.755,2.32,0,2.867c0.95,0,18.217-0.017,21.575,0.164   c3.782,0.204,5.489,2.704,5.489,2.704s3.322,5.446,7.373,12.124c4.041,6.662,8.52,6.395,8.52,6.395s4.613-0.006,10.431,0   c4.22,0.003,6.485-1.511,8.205-3.559c1.72-2.047,6.351-10.045,6.351-10.045s3.52-6.91,6.799-7.373   c2.463-0.347,23.515-0.819,23.515-0.819C100.2,38.813,99.102,37.552,99.102,37.552z M60.425,56.108   c-1.789,2.706-4.403,2.937-4.403,2.937h-6.423c0,0-1.606-0.092-4.909,0c-3.303,0.092-5.322-2.753-5.322-2.753l-5.092-7.891   l0.413-0.872h30.049l0.597,0.917C65.334,48.447,62.215,53.402,60.425,56.108z"></path></g></svg>