<svg height="479pt" viewBox="0 -93 479.98484 479" width="479pt" xmlns="http://www.w3.org/2000/svg"><path d="m164.433594 95.070312-1.464844.726563c-37.148438 18.457031-80.796875 18.457031-117.945312 0l-1.457032-.726563c-2.566406-1.382812-5.683594-1.253906-8.132812.328126-2.449219 1.585937-3.84375 4.378906-3.632813 7.289062.207031 2.910156 1.980469 5.472656 4.632813 6.695312l1.445312.726563c41.648438 20.695313 90.585938 20.695313 132.234375 0l1.453125-.726563c2.652344-1.222656 4.425782-3.785156 4.632813-6.695312.210937-2.910156-1.183594-5.703125-3.632813-7.289062-2.449218-1.582032-5.566406-1.710938-8.132812-.328126zm0 0"/><path d="m208 85.71875h-8c-4.417969 0-8 3.582031-8 8s3.582031 8 8 8h8c4.417969 0 8-3.582031 8-8s-3.582031-8-8-8zm0 0"/><path d="m248 85.71875h-8c-4.417969 0-8 3.582031-8 8s3.582031 8 8 8h8c4.417969 0 8-3.582031 8-8s-3.582031-8-8-8zm0 0"/><path d="m256 221.71875c-13.253906 0-24 10.746094-24 24s10.746094 24 24 24 24-10.746094 24-24-10.746094-24-24-24zm0 32c-4.417969 0-8-3.582031-8-8s3.582031-8 8-8 8 3.582031 8 8-3.582031 8-8 8zm0 0"/><path d="m446.953125 57.773438-111.65625-6.773438c-57.191406-3.484375-113.882813-12.714844-169.226563-27.554688l-81.597656-21.910156c-.28125-.078125-.5625-.140625-.847656-.183594-20.921875-3.25-42.214844 2.808594-58.292969 16.582032-16.074219 13.773437-25.332031 33.886718-25.332031 55.058594v42.0625c-.0351562 19.386718 11.625 36.878906 29.535156 44.304687l20.945313 8.757813c33.121093 13.949218 70.375 14.445312 103.855469 1.386718l53.664062 40.214844v36c0 26.507812 21.492188 48 48 48s48-21.492188 48-48v-36.457031l83.097656-75.542969h54.742188c20.074218 0 36.710937-15.554688 38.058594-35.582031 1.347656-20.027344-13.054688-37.671875-32.945313-40.363281zm-275.25 104.746093 10.328125-4.257812 25.96875 19.457031v12zm52.296875 19.199219h64v16h-64zm68.6875-16h-74.023438l-19.414062-14.570312 42.351562-17.429688h83.085938zm-36.6875 112c-17.671875 0-32-14.328125-32-32v-32h64v32c0 17.671875-14.328125 32-32 32zm48-90.089844v-10.597656l43.3125-43.3125h16zm137.839844-69.910156h-201.839844c-1.046875 0-2.082031.203125-3.046875.597656l-85.464844 35.203125c-30.375 12.601563-64.527343 12.53125-94.847656-.203125l-20.945313-8.726562c-11.941406-4.945313-19.71875-16.609375-19.695312-29.535156v-42.0625c-.003906-16.425782 7.140625-32.039063 19.574219-42.773438 12.433593-10.730469 28.921875-15.519531 45.167969-13.117188l81.1875 21.792969c56.375 15.125 114.132812 24.527344 172.398437 28.070313l110.910156 6.699218c11.4375 1.777344 19.578125 12.058594 18.6875 23.597657-.890625 11.539062-10.511719 20.449219-22.085937 20.457031zm0 0"/></svg>