<svg height="512pt" viewBox="0 0 512 512.12467" width="512pt" xmlns="http://www.w3.org/2000/svg"><path d="m322.320312 8.734375c-100.015624-26.796875-206.324218 9.289063-269.355468 91.4375-63.03125 82.144531-70.375 194.171875-18.601563 283.84375 33.804688 58.917969 89.773438 101.867187 155.433594 119.277344 21.746094 5.84375 44.160156 8.8125 66.679687 8.832031 91.394532-.183594 175.765626-49.058594 221.390626-128.253906 45.621093-79.195313 45.578124-176.703125-.113282-255.855469-33.804687-58.921875-89.773437-101.871094-155.433594-119.28125zm164.53125 309.121094c-25.015624 93.34375-103.792968 162.425781-199.605468 175.042969-95.808594 12.613281-189.785156-33.730469-238.105469-117.417969-42.589844-73.882813-42.601563-164.855469-.039063-238.75 42.566407-73.894531 121.269532-119.523438 206.546876-119.753907 21.015624.015626 41.9375 2.789063 62.234374 8.246094 61.210938 16.398438 113.398438 56.441406 145.085938 111.320313 31.6875 54.882812 40.273438 120.101562 23.871094 181.3125zm0 0"/><path d="m153.605469 78.683594c6.640625-3.773438 13.476562-7.191406 20.480469-10.242188 2.796874-1.21875 4.730468-3.835937 5.070312-6.867187.34375-3.03125-.960938-6.015625-3.414062-7.824219-2.453126-1.8125-5.6875-2.175781-8.480469-.957031-7.570313 3.300781-14.957031 6.996093-22.136719 11.074219-41.734375 23.886718-74.476562 60.8125-93.191406 105.105468-1.84375 4.339844.183594 9.351563 4.523437 11.191406 4.34375 1.839844 9.351563-.183593 11.191407-4.527343 17.261718-40.859375 47.460937-74.921875 85.957031-96.953125zm0 0"/><path d="m455.660156 331.867188c-2.082031-.886719-4.433594-.90625-6.535156-.058594-2.097656.847656-3.777344 2.496094-4.660156 4.582031-17.273438 40.871094-47.488282 74.941406-86.007813 96.972656-13.429687 7.699219-27.671875 13.882813-42.46875 18.4375-4.042969 1.242188-6.570312 5.257813-5.933593 9.441407.632812 4.179687 4.238281 7.265624 8.46875 7.25.847656.007812 1.695312-.121094 2.507812-.375 16.007812-4.9375 31.421875-11.628907 45.960938-19.957032 41.734374-23.886718 74.472656-60.8125 93.191406-105.105468 1.839844-4.339844-.183594-9.347657-4.523438-11.1875zm0 0"/><path d="m357.75 382.050781c.117188-.078125.253906-.085937.375-.160156.199219-.1875.386719-.382813.5625-.589844 44.273438-36.378906 66.101562-93.390625 57.445312-150.035156 0-.101563-.058593-.1875-.058593-.28125-5.9375-39.414063-26.414063-75.179687-57.394531-100.257813-.214844-.179687-.332032-.425781-.5625-.589843-.09375-.058594-.207032-.066407-.300782-.125-44.902344-36.152344-105.605468-45.789063-159.496094-25.320313-.085937.042969-.179687 0-.273437.070313l-.109375.085937c-15.855469 5.828125-30.59375 14.328125-43.582031 25.128906-.117188.078126-.253907.085938-.375.160157-.195313.1875-.386719.382812-.5625.589843-44.269531 36.378907-66.09375 93.394532-57.4375 150.035157 0 .101562.058593.1875.058593.28125 8.523438 57.429687 47.265626 105.839843 101.429688 126.746093 54.164062 20.902344 115.382812 11.074219 160.28125-25.738281zm-67.953125-86.476562c-.238281.132812-.472656.277343-.699219.433593l-7.285156 4.269532-14.917969 8.617187c-2.3125 1.375-3.828125 3.773438-4.078125 6.453125-5.546875.582032-11.152344.398438-16.648437-.546875-1.242188-4.140625-4.007813-7.652343-7.738281-9.832031l-15.941407-9.207031c-3.773437-2.148438-8.222656-2.78125-12.441406-1.765625-2.140625-2.53125-4.0625-5.242188-5.742187-8.097656-1.617188-2.855469-2.988282-5.847657-4.097657-8.933594 3-3.167969 4.667969-7.371094 4.652344-11.734375v-18.433594c.007813-4.34375-1.65625-8.523437-4.644531-11.671875 1.941406-5.191406 4.589844-10.089844 7.867187-14.558594 2.433594 1.179688 5.292969 1.054688 7.613281-.332031l6.324219-3.660156c.09375-.054688.203125-.0625.296875-.121094.242188-.132813.476563-.277344.699219-.433594l7.289063-4.269531 14.914062-8.617188c2.3125-1.375 3.828125-3.773437 4.082031-6.453124 5.523438-.582032 11.101563-.402344 16.578125.53125 1.265625 4.152343 4.0625 7.667968 7.824219 9.828124l15.890625 9.234376c3.785156 2.175781 8.265625 2.816406 12.511719 1.792968 2.121093 2.527344 4.027343 5.222656 5.707031 8.0625 1.617188 2.855469 2.988281 5.847656 4.097656 8.933594-3.003906 3.167969-4.667968 7.371094-4.652344 11.734375v18.433594c-.007812 4.34375 1.652344 8.523437 4.640626 11.671875-1.945313 5.199218-4.597657 10.101562-7.882813 14.574218-2.4375-1.113281-5.261719-.996093-7.59375.316407l-6.230469 3.609375c-.128906.070312-.265625.105468-.394531.171875zm-118.613281 76.542969 42.777344-61.601563 15.941406 9.199219-31.964844 67.816406zm-59.132813-131.667969 75.738281 6.347656v18.46875l-75.832031 6.320313c-1.089843-10.351563-1.0625-20.789063.082031-31.136719zm229.546875-101.546875-43.46875 62.601562-15.941406-9.207031 32.476562-68.875c9.515626 4.1875 18.550782 9.390625 26.949219 15.515625zm58.460938 132.640625-75.734375-6.3125v-18.46875l75.835937-6.320313c1.089844 10.351563 1.0625 20.789063-.085937 31.136719zm-45.261719 90.601562-39.738281-57.175781c5.503906-6.644531 9.851562-14.164062 12.867187-22.246094l69.289063 5.785156c-6.460938 28.234376-21.234375 53.882813-42.417969 73.636719zm26.898437-178.664062c7.21875 12.507812 12.527344 26.027343 15.742188 40.105469l-69.503906 5.796874c-1.429688-4.070312-3.207032-8.007812-5.316406-11.769531-2.207032-3.730469-4.722657-7.265625-7.527344-10.574219l39.773437-57.171874c10.570313 9.804687 19.613281 21.136718 26.832031 33.613281zm-125.886718-72.535157c14.519531.027344 28.953125 2.21875 42.820312 6.503907l-29.710937 63.011719c-8.523438-1.46875-17.230469-1.496094-25.761719-.078126l-29.707031-63.011718c13.722656-4.238282 28-6.402344 42.359375-6.425782zm-72.285156 19.433594c4.5-2.574218 9.136718-4.898437 13.882812-6.972656l32.429688 68.914062-8.183594 4.753907-7.679688 4.421875-43.519531-62.59375c4.199219-3.074219 8.566406-5.917969 13.070313-8.523438zm-26.203126 19.503906 39.730469 57.21875c-5.5 6.644532-9.84375 14.164063-12.859375 22.246094l-69.292968-5.785156c6.453124-28.25 21.230468-53.914062 42.421874-73.679688zm-26.898437 178.664063c-7.222656-12.507813-12.527344-26.027344-15.746094-40.105469l69.503907-5.796875c1.445312 4.0625 3.238281 7.992188 5.359374 11.742188 2.199219 3.71875 4.710938 7.246093 7.503907 10.539062l-39.777344 57.269531c-10.574219-9.816406-19.625-21.15625-26.84375-33.648437zm83.097656 65.929687 29.660157-62.941406c4.335937.792969 8.734374 1.214844 13.140624 1.261719 4.238282-.042969 8.46875-.433594 12.640626-1.179687l29.679687 62.960937c-27.746094 8.492187-57.398437 8.457031-85.121094-.101563zm101.203125-5.8125-32.425781-68.957031 8.183594-4.753906 7.679687-4.421875 43.519532 62.59375c-8.367188 6.15625-17.390626 11.371094-26.902344 15.539062zm0 0"/><path d="m264.890625 223.050781c-15.730469-4.214843-32.246094 3.273438-39.445313 17.878907-7.199218 14.605468-3.078124 32.265624 9.84375 42.175781 12.921876 9.910156 31.042969 9.3125 43.285157-1.425781 12.238281-10.742188 15.1875-28.632813 7.042969-42.734376-4.503907-7.855468-11.96875-13.582031-20.726563-15.894531zm7.679687 37.382813c-2.292968 8.542968-10.730468 13.921875-19.441406 12.390625-8.710937-1.535157-14.808594-9.46875-14.046875-18.28125s8.128907-15.582031 16.976563-15.597657c1.5.003907 2.996094.203126 4.445312.589844 4.371094 1.171875 8.101563 4.035156 10.363282 7.953125 2.261718 3.921875 2.875 8.582031 1.703124 12.953125zm0 0"/><path d="m204.859375 51.214844c0 4.710937-3.820313 8.53125-8.535156 8.53125-4.710938 0-8.535157-3.820313-8.535157-8.53125 0-4.714844 3.824219-8.535156 8.535157-8.535156 4.714843 0 8.535156 3.820312 8.535156 8.535156zm0 0"/></svg>